<svg id="Capa_1" enable-background="new 0 0 512 512" height="512" viewBox="0 0 512 512" width="512" xmlns="http://www.w3.org/2000/svg"><g><g><path d="m378.642 511.997h-245.285c-13.629 0-24.677-11.048-24.677-24.677v-462.643c0-13.629 11.048-24.677 24.677-24.677h245.284c13.629 0 24.677 11.048 24.677 24.677v462.643c.001 13.629-11.048 24.677-24.676 24.677z" fill="#dff6fd"/><path d="m403.319 24.679v462.643c0 13.633-11.046 24.679-24.679 24.679h-22.33c13.633 0 24.679-11.046 24.679-24.679v-462.643c0-13.633-11.046-24.679-24.679-24.679h22.329c13.633 0 24.68 11.046 24.68 24.679z" fill="#c8effe"/><path d="m378.642 511.997h-245.285c-13.629 0-24.677-11.048-24.677-24.677v-42.753h294.639v42.753c0 13.629-11.049 24.677-24.677 24.677z" fill="#596c76"/><path d="m378.642 0h-245.285c-13.629 0-24.677 11.048-24.677 24.677v42.753h294.639v-42.753c0-13.629-11.049-24.677-24.677-24.677z" fill="#596c76"/><path d="m403.32 444.567v42.753c0 13.633-11.046 24.679-24.679 24.679h-22.331c13.633 0 24.679-11.046 24.679-24.679v-42.753z" fill="#465a61"/><path d="m403.319 24.679v42.753h-22.329v-42.753c-.001-13.633-11.047-24.679-24.68-24.679h22.329c13.633 0 24.68 11.046 24.68 24.679z" fill="#465a61"/><path d="" style="fill:none;stroke:#000;stroke-width:15;stroke-linecap:round;stroke-linejoin:round;stroke-miterlimit:10"/><g><path d="m268.456 485.782h-24.914c-4.142 0-7.5-3.358-7.5-7.5s3.358-7.5 7.5-7.5h24.914c4.142 0 7.5 3.358 7.5 7.5s-3.358 7.5-7.5 7.5z" fill="#33474c"/></g><g><g><circle cx="223.423" cy="33.715" fill="#33474c" r="10.248"/></g><g><path d="m298.823 41.215h-42.823c-4.142 0-7.5-3.358-7.5-7.5s3.358-7.5 7.5-7.5h42.824c4.142 0 7.5 3.358 7.5 7.5s-3.359 7.5-7.501 7.5z" fill="#33474c"/></g></g></g><g><path d="m302.352 326.318h-92.705c-6.558 0-11.874-5.316-11.874-11.874v-54.3c0-6.558 5.316-11.874 11.874-11.874h92.705c6.558 0 11.874 5.316 11.874 11.874v54.3c0 6.558-5.316 11.874-11.874 11.874z" fill="#97d729"/><path d="m293.095 248.268h9.253c6.564 0 11.881 5.317 11.881 11.871v54.302c0 6.564-5.317 11.881-11.881 11.881h-9.253z" fill="#8bc727"/><path d="m227.283 378.315c-7.791 0-14.107-6.316-14.107-14.107v-43.876h28.214v43.876c0 7.791-6.316 14.107-14.107 14.107z" fill="#97d729"/><path d="m284.716 378.315c-7.791 0-14.107-6.316-14.107-14.107v-43.876h28.214v43.876c0 7.791-6.316 14.107-14.107 14.107z" fill="#97d729"/><path d="m241.388 326.321v37.889c0 7.79-6.317 14.107-14.107 14.107-2.432 0-4.719-.618-6.718-1.7 4.4-2.391 7.388-7.048 7.388-12.406v-37.889h13.437z" fill="#8bc727"/><path d="m298.824 326.321v37.889c0 7.79-6.317 14.107-14.107 14.107-2.432 0-4.719-.618-6.718-1.7 4.4-2.391 7.378-7.048 7.378-12.406v-37.889h13.447z" fill="#8bc727"/><g><g><g><path d="m230.843 154.932c-2.669 0-5.252-1.428-6.608-3.942l-7.413-13.75c-1.966-3.646-.604-8.195 3.042-10.161s8.195-.604 10.161 3.042l7.413 13.75c1.966 3.646.604 8.195-3.042 10.161-1.132.61-2.352.9-3.553.9z" fill="#79aa1b"/></g></g><g><g><path d="m281.156 154.932c-1.202 0-2.42-.29-3.553-.9-3.646-1.965-5.008-6.515-3.042-10.161l7.413-13.75c1.965-3.647 6.515-5.008 10.161-3.042s5.008 6.515 3.042 10.161l-7.413 13.75c-1.355 2.513-3.939 3.942-6.608 3.942z" fill="#79aa1b"/></g></g></g><g><g fill="#97d729"><path d="m354.192 305.447c-7.791 0-14.107-6.316-14.107-14.107v-28.961c0-7.791 6.316-14.107 14.107-14.107 7.791 0 14.107 6.316 14.107 14.107v28.961c0 7.791-6.316 14.107-14.107 14.107z"/><path d="m157.807 305.447c-7.791 0-14.107-6.316-14.107-14.107v-28.961c0-7.791 6.316-14.107 14.107-14.107 7.791 0 14.107 6.316 14.107 14.107v28.961c0 7.791-6.316 14.107-14.107 14.107z"/></g><g fill="#8bc727"><path d="m368.296 262.375v28.966c0 7.79-6.317 14.107-14.107 14.107-2.669 0-5.162-.742-7.295-2.03 4.081-2.483 6.801-6.955 6.801-12.077v-28.966c0-3.895-1.577-7.419-4.132-9.974-.804-.804-1.7-1.504-2.669-2.102 2.133-1.288 4.627-2.03 7.295-2.03 3.895 0 7.419 1.577 9.975 4.132 2.555 2.555 4.132 6.079 4.132 9.974z"/><path d="m171.916 262.375v28.966c0 7.79-6.317 14.107-14.107 14.107-2.669 0-5.173-.742-7.306-2.03 4.081-2.483 6.801-6.955 6.801-12.077v-28.966c0-3.895-1.577-7.419-4.132-9.974-.804-.804-1.7-1.504-2.669-2.102 2.133-1.288 4.637-2.03 7.306-2.03 3.895 0 7.419 1.577 9.975 4.132s4.132 6.079 4.132 9.974z"/></g></g><path d="m300.742 224.196h-89.484c-7.447 0-13.485-6.037-13.485-13.485v-10.14c0-32.158 26.069-58.227 58.227-58.227 32.158 0 58.227 26.069 58.227 58.227v10.14c-.001 7.448-6.038 13.485-13.485 13.485z" fill="#97d729"/><path d="m314.229 200.575v10.14c0 7.44-6.038 13.478-13.488 13.478h-20.835c7.45 0 13.488-6.038 13.488-13.478v-10.14c0-16.085-6.523-30.635-17.054-41.176-8.212-8.212-18.857-13.973-30.758-16.126 3.38-.608 6.863-.927 10.418-.927 16.075 0 30.635 6.512 41.176 17.053 10.53 10.542 17.053 25.092 17.053 41.176z" fill="#8bc727"/><g><g><path d="m233.671 200.994c-4.142 0-7.5-3.358-7.5-7.5v-7.424c0-4.142 3.358-7.5 7.5-7.5s7.5 3.358 7.5 7.5v7.424c0 4.142-3.358 7.5-7.5 7.5z" fill="#79aa1b"/></g><g><path d="m278.328 200.994c-4.142 0-7.5-3.358-7.5-7.5v-7.424c0-4.142 3.358-7.5 7.5-7.5s7.5 3.358 7.5 7.5v7.424c0 4.142-3.358 7.5-7.5 7.5z" fill="#79aa1b"/></g></g></g><g><g><path d="m329.375 115.393c-4.142 0-7.5-3.358-7.5-7.5v-4.723c0-4.142 3.358-7.5 7.5-7.5s7.5 3.358 7.5 7.5v4.723c0 4.142-3.358 7.5-7.5 7.5z" fill="#7a8c98"/></g><g><path d="m353.093 115.393c-4.142 0-7.5-3.358-7.5-7.5v-9.446c0-4.142 3.358-7.5 7.5-7.5s7.5 3.358 7.5 7.5v9.446c0 4.142-3.358 7.5-7.5 7.5z" fill="#7a8c98"/></g><g><path d="m376.812 115.393c-4.142 0-7.5-3.358-7.5-7.5v-14.169c0-4.142 3.358-7.5 7.5-7.5s7.5 3.358 7.5 7.5v14.168c0 4.143-3.358 7.501-7.5 7.501z" fill="#7a8c98"/></g></g></g></svg>