<?xml version="1.0" encoding="iso-8859-1"?>
<!-- Generator: Adobe Illustrator 19.0.0, SVG Export Plug-In . SVG Version: 6.00 Build 0)  -->
<svg version="1.1" id="Capa_1" xmlns="http://www.w3.org/2000/svg" xmlns:xlink="http://www.w3.org/1999/xlink" x="0px" y="0px"
	 viewBox="0 0 512 512" style="enable-background:new 0 0 512 512;" xml:space="preserve">
<path style="fill:#6EDCF9;" d="M432.079,108.784c-1.097-43.626-43.744-74.435-85.721-61.263
	c-43.882-62.865-136.789-62.926-180.711,0c-41.965-13.166-84.622,17.621-85.722,61.261C33.793,121.924,0,164.347,0,214.693
	c0,60.827,49.313,110.141,110.144,110.141c13.782,0,282.028,0,291.713,0c60.83,0,110.143-49.314,110.143-110.141
	C512,164.347,478.208,121.924,432.079,108.784z"/>
<path style="fill:#54B8E5;" d="M165.646,47.521c-41.965-13.166-84.622,17.621-85.722,61.261C33.793,121.924,0,164.347,0,214.693
	c0,44.417,26.298,82.691,64.172,100.112C-5.339,262.03,11.168,152.628,93.783,123.291c4.672-2.131,6.732-5.869,7.514-10.854
	c0.006-0.082,0.008-0.135,0.008-0.135l0.013-0.002c5.562-34.724,37.924-59.758,74.048-54.849c10.505,0,15.965-3.724,18.144-6.935
	l0.006,0.005c32.223-37.001,84.733-48.163,128.936-27.856C272.832-14.97,201.586-3.968,165.646,47.521z"/>
<path style="fill:#D9DBDB;" d="M363.348,485.393h-99.637v-71.38c0-4.26-3.453-7.712-7.712-7.712s-7.712,3.452-7.712,7.712v71.38
	c-23.608,0-78.577,0-102.071,0c-4.259,0-7.712,3.452-7.712,7.712s3.453,7.712,7.712,7.712c7.798,0,212.476,0,217.132,0
	c4.259,0,7.712-3.452,7.712-7.712C371.06,488.846,367.608,485.393,363.348,485.393z"/>
<g>
	<path style="fill:#585A60;" d="M368.471,279.81c0,6.814-5.525,12.339-12.339,12.339H155.868c-6.814,0-12.339-5.525-12.339-12.339
		v-40.099c0-6.815,5.525-12.339,12.339-12.339h200.263c6.814,0,12.339,5.524,12.339,12.339v40.099H368.471z"/>
	<path style="fill:#585A60;" d="M368.471,344.587c0,6.815-5.525,12.339-12.339,12.339H155.868c-6.814,0-12.339-5.524-12.339-12.339
		v-40.099c0-6.814,5.525-12.339,12.339-12.339h200.263c6.814,0,12.339,5.525,12.339,12.339v40.099H368.471z"/>
	<path style="fill:#585A60;" d="M368.471,409.363c0,6.814-5.525,12.339-12.339,12.339H155.868c-6.814,0-12.339-5.525-12.339-12.339
		v-40.099c0-6.815,5.525-12.339,12.339-12.339h200.263c6.814,0,12.339,5.524,12.339,12.339v40.099H368.471z"/>
</g>
<g>
	<path style="fill:#414356;" d="M356.132,271.583H155.868c-6.814,0-12.339-5.525-12.339-12.339v20.566
		c0,6.814,5.525,12.339,12.339,12.339h200.263c6.814,0,12.339-5.525,12.339-12.339v-20.566
		C368.471,266.058,362.946,271.583,356.132,271.583z"/>
	<path style="fill:#414356;" d="M356.132,336.36H155.868c-6.814,0-12.339-5.524-12.339-12.339v20.566
		c0,6.815,5.525,12.339,12.339,12.339h200.263c6.814,0,12.339-5.524,12.339-12.339v-20.566
		C368.471,330.836,362.946,336.36,356.132,336.36z"/>
	<path style="fill:#414356;" d="M356.132,401.136H155.868c-6.814,0-12.339-5.525-12.339-12.339v20.566
		c0,6.814,5.525,12.339,12.339,12.339h200.263c6.814,0,12.339-5.525,12.339-12.339v-20.566
		C368.471,395.612,362.946,401.136,356.132,401.136z"/>
</g>
<g>
	<path style="fill:#858689;" d="M335.928,267.473h-32.904c-4.259,0-7.712-3.452-7.712-7.712s3.453-7.712,7.712-7.712h32.904
		c4.259,0,7.712,3.452,7.712,7.712C343.64,264.021,340.187,267.473,335.928,267.473z"/>
	<path style="fill:#858689;" d="M271.864,265.216c-3.031-3.032-2.992-7.917,0-10.91c3.033-3.011,7.905-2.983,10.909,0
		c3.001,3.023,3.021,7.867,0,10.91C279.771,268.217,274.887,268.238,271.864,265.216z"/>
	<path style="fill:#858689;" d="M335.928,332.249h-32.904c-4.259,0-7.712-3.452-7.712-7.712s3.453-7.712,7.712-7.712h32.904
		c4.259,0,7.712,3.452,7.712,7.712C343.64,328.796,340.187,332.249,335.928,332.249z"/>
	<path style="fill:#858689;" d="M271.864,329.984c-3.03-3.008-2.992-7.929,0-10.899c3.023-3.024,7.911-3,10.909,0
		c2.972,2.971,3.021,7.88,0,10.899C279.775,332.984,274.887,333.008,271.864,329.984z"/>
	<path style="fill:#858689;" d="M335.928,397.026h-32.904c-4.259,0-7.712-3.452-7.712-7.712s3.453-7.712,7.712-7.712h32.904
		c4.259,0,7.712,3.452,7.712,7.712S340.187,397.026,335.928,397.026z"/>
	<path style="fill:#858689;" d="M271.864,394.764c-3.011-2.989-3.011-7.91,0-10.899c2.964-2.986,7.874-3.037,10.909,0
		c3,2.998,2.996,7.904,0,10.899C279.775,397.764,274.887,397.788,271.864,394.764z"/>
</g>
<circle style="fill:#6EDCF9;" cx="256" cy="493.11" r="18.55"/>
<path style="fill:#54B8E5;" d="M265.275,477.056c-12.345-7.15-27.824,1.784-27.824,16.049c0,14.255,15.469,23.205,27.824,16.048
	C252.913,501.994,252.925,484.211,265.275,477.056z"/>
<g>
</g>
<g>
</g>
<g>
</g>
<g>
</g>
<g>
</g>
<g>
</g>
<g>
</g>
<g>
</g>
<g>
</g>
<g>
</g>
<g>
</g>
<g>
</g>
<g>
</g>
<g>
</g>
<g>
</g>
</svg>
